<svg width="30px" height="30px" viewBox="0 0 30 30" version="1.1" xmlns="http://www.w3.org/2000/svg" xmlns:xlink="http://www.w3.org/1999/xlink">
    <g id="Symbols" stroke="none" stroke-width="1" fill="none" fill-rule="evenodd">
        <g id="AuthBox" transform="translate(-13.000000, -9.000000)">
            <g id="Group-2">
                <g transform="translate(13.000000, 9.000000)">
                    <path d="M30,14.9856802 C30,22.8472554 23.9642005,29.3054893 16.2959427,29.9212411 C15.8735084,30 15.4439141,30 15.0214797,30 C13.8973747,30 12.8090692,29.8854415 11.7708831,29.6563246 C5.03341289,28.1384248 0,22.1384248 0,14.9856802 C0,6.70167064 6.73747017,0 15.0214797,0 C23.3054893,0 30,6.70167064 30,14.9856802" id="Fill-20" fill="#43464A"></path>
                    <path d="M16.5100251,11.8752031 C16.7105263,11.6035099 17.1177945,11.4033149 17.6942356,11.4033149 C18.2330827,11.4033149 18.8784461,11.4891128 19.4862155,11.6821579 L20,8.54338642 C18.9473684,8.12154696 17.8696742,8 16.7481203,8 C15.6265664,8 14.7493734,8.200195 14.0350877,8.65778356 C13.320802,9.12252194 12.8508772,9.63015925 12.5814536,10.3737407 C12.3057644,11.0172246 12.1741855,12.1468963 12.1741855,13.5339617 L12.1741855,14.7708807 L10,14.7708807 L10,18.3672408 L12.1741855,18.3672408 L12.1741855,29.6568086 C13.0827068,29.8856029 14.0350877,30 15.018797,30 C15.3884712,30 15.764411,30 16.1340852,29.921352 L16.1340852,18.3672408 L19.0162907,18.3672408 L19.0162907,14.7708807 L16.1340852,14.7708807 L16.1340852,13.6126097 C16.1340852,12.7260318 16.2406015,12.1754956 16.5100251,11.8752031" id="Fill-21" fill="#FFFFFE"></path>
                </g>
            </g>
        </g>
    </g>
</svg>