<svg width="30px" height="30px" viewBox="0 0 30 30" version="1.1" xmlns="http://www.w3.org/2000/svg" xmlns:xlink="http://www.w3.org/1999/xlink">
    <g id="Symbols" stroke="none" stroke-width="1" fill="none" fill-rule="evenodd">
        <g id="AuthBox" transform="translate(-13.000000, -84.000000)" fill="#43464A" fill-rule="nonzero">
            <g id="Path-2">
                <g transform="translate(13.000000, 84.000000)">
                    <path d="M0,15 C0,6.729 6.729,0 15,0 C18.3404286,0 21.5021429,1.07471429 24.1434286,3.108 L20.6577143,7.636 C19.0245714,6.37885714 17.0681429,5.71428571 15,5.71428571 C9.87985714,5.71428571 5.71428571,9.87985714 5.71428571,15 C5.71428571,20.1201429 9.87985714,24.2857143 15,24.2857143 C19.1238571,24.2857143 22.6282857,21.5838571 23.836,17.8571429 L15,17.8571429 L15,12.1428571 L30,12.1428571 L30,15 C30,23.271 23.271,30 15,30 C6.729,30 0,23.271 0,15 Z" id="Path"></path>
                </g>
            </g>
        </g>
    </g>
</svg>